<?xml version="1.0" encoding="UTF-8"?>
<svg width="64px" height="64px" viewBox="0 0 64 64" version="1.1" xmlns="http://www.w3.org/2000/svg" xmlns:xlink="http://www.w3.org/1999/xlink">
    <!-- Generator: Sketch 55.1 (78136) - https://sketchapp.com -->
    <title>icon / product-logo / 64x64px / app-search / color-reverse</title>
    <desc>Created with Sketch.</desc>
    <defs>
        <polygon id="path-1" points="0.1098 0.4684 21.8418 0.4684 21.8418 42 0.1098 42"></polygon>
    </defs>
    <g id="icon-/-product-logo-/-64x64px-/-app-search-/-color-reverse" stroke="none" stroke-width="1" fill="none" fill-rule="evenodd">
        <g id="Group-8" transform="translate(6.000000, 5.000000)">
            <path d="M31.9689,1.6208 C28.2269,-0.5402 23.6149,-0.5402 19.8729,1.6208 L6.9119,9.1178 L25.9209,20.0918 L44.9299,9.1178 L31.9689,1.6208 Z" id="Fill-1" fill="#FFFFFF"></path>
            <path d="M25.921,20.092 L6.9,9.111 L6.048,9.602 C2.306,11.763 0,15.757 0,20.078 L0,36.041 C0,40.363 2.306,44.357 6.048,46.517 L19.009,54 L19.009,31.067 C19.009,26.745 21.315,22.752 25.057,20.591 L25.921,20.092 Z" id="Fill-3" fill="#0077CC"></path>
            <g id="Group-7" transform="translate(30.000000, 12.000000)">
                <mask id="mask-2" fill="white">
                    <use xlink:href="#path-1"></use>
                </mask>
                <g id="Clip-6"></g>
                <path d="M17.4298,1.4474 L0.1098,11.4474 C1.8348,13.5714 2.8328,16.2434 2.8328,19.0664 L2.8328,42.0004 L15.7938,34.5174 C19.5358,32.3564 21.8418,28.3634 21.8418,24.0414 L21.8418,8.0784 C21.8418,5.2594 20.8468,2.5904 19.1258,0.4684 L17.4298,1.4474 Z" id="Fill-5" fill="#FA744E" mask="url(#mask-2)"></path>
            </g>
        </g>
    </g>
</svg>