<?xml version="1.0" encoding="UTF-8"?>
<svg width="64px" height="64px" viewBox="0 0 64 64" version="1.1" xmlns="http://www.w3.org/2000/svg" xmlns:xlink="http://www.w3.org/1999/xlink">
    <!-- Generator: Sketch 55.1 (78136) - https://sketchapp.com -->
    <title>icon / product-logo / 64x64px / cloud / color-reverse</title>
    <desc>Created with Sketch.</desc>
    <g id="icon-/-product-logo-/-64x64px-/-cloud-/-color-reverse" stroke="none" stroke-width="1" fill="none" fill-rule="evenodd">
        <g id="logo-cloud-64x64-color-reverse" transform="translate(8.000400, 5.000000)">
            <path d="M37.5172,35.8779 C36.0092,35.2389 34.2712,35.3659 32.8922,36.2479 C31.1902,37.3359 29.1692,37.9689 26.9992,37.9689 C24.8292,37.9689 22.8092,37.3359 21.1072,36.2479 C19.7282,35.3659 17.9902,35.2389 16.4822,35.8779 C12.3312,37.6369 8.7112,40.4059 5.9292,43.8749 C10.8782,50.0449 18.4752,53.9999 26.9992,53.9999 C35.5242,53.9999 43.1212,50.0449 48.0702,43.8749 C45.2882,40.4059 41.6672,37.6369 37.5172,35.8779" id="Fill-4" fill="#00BFB3"></path>
            <path d="M26.9996,2.13162821e-14 C18.4756,2.13162821e-14 10.8786,3.955 5.9296,10.125 C8.7116,13.594 12.3316,16.363 16.4816,18.122 C17.9896,18.761 19.7286,18.634 21.1066,17.752 C22.8096,16.664 24.8296,16.031 26.9996,16.031 C29.1696,16.031 31.1896,16.664 32.8926,17.752 C34.2706,18.634 36.0096,18.761 37.5176,18.122 C41.6676,16.363 45.2876,13.594 48.0696,10.125 C43.1206,3.955 35.5236,2.13162821e-14 26.9996,2.13162821e-14" id="Fill-7" fill="#0077CC"></path>
            <path d="M16.482,18.1221 C12.332,16.3631 8.711,13.5941 5.929,10.1251 C5.929,10.1241 5.93,10.1241 5.93,10.1231 C2.22,14.7451 -6.39488462e-14,20.6121 -6.39488462e-14,27.0001 C-6.39488462e-14,31.5191 1.116,35.7761 3.079,39.5181 C6.238,35.9631 10.164,33.1251 14.531,31.2741 C15.222,30.9821 15.936,30.7771 16.665,30.6451 C16.261,29.5031 16.031,28.2801 16.031,27.0001 C16.031,22.9421 18.24,19.4081 21.515,17.5111 C21.378,17.5901 21.24,17.6671 21.107,17.7521 C19.728,18.6341 17.99,18.7611 16.482,18.1221" id="Fill-9" fill="#FFFFFF"></path>
        </g>
    </g>
</svg>