<svg xmlns="http://www.w3.org/2000/svg" width="64" height="64" viewBox="0 0 64 64">
  <g fill="none" fill-rule="evenodd">
    <path fill="#FFF" d="M37.0625 32C37.0625 34.796 34.7955 37.062 32.0005 37.062 29.2045 37.062 26.9375 34.796 26.9375 32 26.9375 29.204 29.2045 26.938 32.0005 26.938 34.7955 26.938 37.0625 29.204 37.0625 32M38.2227 24.1045C38.2657 24.1385 38.3097 24.1735 38.3527 24.2085 39.2907 24.9725 40.5857 25.1205 41.6777 24.5975L55.1717 18.1415C51.8747 12.6405 46.6757 8.4165 40.4827 6.3675L37.1187 20.9425C36.8457 22.1215 37.2717 23.3555 38.2227 24.1045"/>
    <path fill="#FFF" d="M32.1855 44.1836C31.9185 43.0026 30.9995 42.0756 29.8185 41.8136 25.3165 40.8156 21.9375 36.7986 21.9375 31.9996 21.9375 27.1826 25.3415 23.1526 29.8705 22.1736 31.0525 21.9186 31.9755 20.9946 32.2475 19.8156L35.6105 5.2476C34.4285 5.0896 33.2245 4.9996 31.9995 4.9996 17.0875 4.9996 4.9995 17.0886 4.9995 31.9996 4.9995 46.9116 17.0875 58.9996 31.9995 58.9996 33.1785 58.9996 34.3365 58.9156 35.4745 58.7696L32.1855 44.1836zM57.2852 41.478C58.3902 38.528 59.0002 35.336 59.0002 32 59.0002 28.713 58.4112 25.563 57.3352 22.649L43.7522 29.148C42.6532 29.674 41.9622 30.786 41.9611902 32.004L41.9611902 32.054C41.9582 33.27 42.6432 34.381 43.7372 34.911L57.2852 41.478zM38.3105 39.8237C38.2675 39.8577 38.2245 39.8917 38.1815 39.9257 37.2275 40.6697 36.7955 41.9007 37.0615 43.0817L40.3535 57.6767C46.5595 55.6577 51.7815 51.4597 55.1045 45.9777L41.6395 39.4507C40.5495 38.9227 39.2525 39.0637 38.3105 39.8237"/>
  </g>
</svg>
