<?xml version="1.0" encoding="UTF-8"?>
<svg width="64px" height="64px" viewBox="0 0 64 64" version="1.1" xmlns="http://www.w3.org/2000/svg" xmlns:xlink="http://www.w3.org/1999/xlink">
    <!-- Generator: Sketch 55.1 (78136) - https://sketchapp.com -->
    <title>icon / product-logo / 64x64px / ece / white</title>
    <desc>Created with Sketch.</desc>
    <g id="icon-/-product-logo-/-64x64px-/-ece-/-white" stroke="none" stroke-width="1" fill="none" fill-rule="evenodd">
        <g id="Group" transform="translate(8.000200, 5.000400)" fill="#FFFFFF">
            <path d="M37.5174,35.8775 C36.0094,35.2385 34.2714,35.3655 32.8924,36.2475 C31.1904,37.3355 29.1694,37.9685 26.9994,37.9685 C24.8294,37.9685 22.8094,37.3355 21.1074,36.2475 C19.7284,35.3655 17.9904,35.2385 16.4824,35.8775 C12.3314,37.6365 8.7114,40.4055 5.9294,43.8745 C10.8784,50.0445 18.4754,53.9995 26.9994,53.9995 C35.5244,53.9995 43.1214,50.0445 48.0704,43.8745 C45.2884,40.4055 41.6674,37.6365 37.5174,35.8775" id="Fill-1"></path>
            <path d="M14.531,31.274 C15.222,30.982 15.936,30.777 16.665,30.645 C16.261,29.503 16.031,28.28 16.031,27 C16.031,20.942 20.942,16.031 27,16.031 C29.17,16.031 31.19,16.663 32.892,17.752 C34.271,18.634 36.01,18.76 37.517,18.122 C41.668,16.362 45.288,13.594 48.07,10.125 C43.121,3.954 35.524,0 27,0 C12.088,0 -3.19744231e-14,12.088 -3.19744231e-14,27 C-3.19744231e-14,31.519 1.116,35.775 3.079,39.518 C6.238,35.963 10.164,33.125 14.531,31.274" id="Fill-4"></path>
            <path d="M32.9061,26.9996 C32.9061,30.2616 30.2611,32.9056 27.0001,32.9056 C23.7381,32.9056 21.0931,30.2616 21.0931,26.9996 C21.0931,23.7376 23.7381,21.0936 27.0001,21.0936 C30.2611,21.0936 32.9061,23.7376 32.9061,26.9996" id="Fill-7"></path>
        </g>
    </g>
</svg>