<?xml version="1.0" encoding="UTF-8"?>
<svg width="64px" height="64px" viewBox="0 0 64 64" version="1.1" xmlns="http://www.w3.org/2000/svg" xmlns:xlink="http://www.w3.org/1999/xlink">
    <!-- Generator: Sketch 55.1 (78136) - https://sketchapp.com -->
    <title>icon / product-logo / 64x64px / cloud / white</title>
    <desc>Created with Sketch.</desc>
    <g id="icon-/-product-logo-/-64x64px-/-cloud-/-white" stroke="none" stroke-width="1" fill="none" fill-rule="evenodd">
        <path d="M45.5176,40.8779 C44.0096,40.2389 42.2716,40.3659 40.8926,41.2479 C39.1906,42.3359 37.1696,42.9689 34.9996,42.9689 C32.8296,42.9689 30.8096,42.3359 29.1076,41.2479 C27.7286,40.3659 25.9906,40.2389 24.4826,40.8779 C20.3316,42.6369 16.7116,45.4059 13.9296,48.8749 C18.8786,55.0449 26.4756,58.9999 34.9996,58.9999 C43.5246,58.9999 51.1216,55.0449 56.0706,48.8749 C53.2886,45.4059 49.6676,42.6369 45.5176,40.8779" id="Fill-1" fill="#FFFFFF"></path>
        <path d="M22.5312,36.2744 C23.2222,35.9824 23.9362,35.7774 24.6652,35.6454 C24.2612,34.5034 24.0312,33.2804 24.0312,32.0004 C24.0312,25.9424 28.9422,21.0314 35.0002,21.0314 C37.1702,21.0314 39.1902,21.6634 40.8922,22.7524 C42.2712,23.6344 44.0102,23.7604 45.5172,23.1224 C49.6682,21.3624 53.2882,18.5944 56.0702,15.1254 C51.1212,8.9544 43.5242,5.0004 35.0002,5.0004 C20.0882,5.0004 8.0002,17.0884 8.0002,32.0004 C8.0002,36.5194 9.1162,40.7754 11.0792,44.5184 C14.2382,40.9634 18.1642,38.1254 22.5312,36.2744" id="Fill-4" fill="#FFFFFF"></path>
    </g>
</svg>